<svg width="1331" height="486" viewBox="0 0 1331 486" fill="none" xmlns="http://www.w3.org/2000/svg">
<g opacity="0.8" clip-path="url(#clip0_39_26807)">
<path d="M719.499 43.4492C713.347 43.4492 708.343 48.4596 708.343 54.6183C708.343 60.777 713.347 65.7874 719.499 65.7874C725.65 65.7874 730.655 60.777 730.655 54.6183C730.655 48.4596 725.65 43.4492 719.499 43.4492ZM719.499 63.7567C714.466 63.7567 710.371 59.6572 710.371 54.6183C710.371 49.5795 714.466 45.48 719.499 45.48C724.532 45.48 728.627 49.5795 728.627 54.6183C728.627 59.6572 724.532 63.7567 719.499 63.7567Z" fill="#084D92" fill-opacity="0.8"/>
<path d="M720.514 19.5137H718.485V40.2244H720.514V19.5137Z" fill="#084D92" fill-opacity="0.8"/>
<path d="M713.402 27.9764L711.442 28.502L714.772 40.9443L716.732 40.4187L713.402 27.9764Z" fill="#084D92" fill-opacity="0.8"/>
<path d="M702.812 23.6624L701.056 24.6777L711.401 42.6169L713.158 41.6016L702.812 23.6624Z" fill="#084D92" fill-opacity="0.8"/>
<path d="M700.949 34.6185L699.515 36.0547L708.61 45.161L710.045 43.7249L700.949 34.6185Z" fill="#084D92" fill-opacity="0.8"/>
<path d="M689.66 36.2316L688.646 37.9902L706.564 48.3478L707.578 46.5891L689.66 36.2316Z" fill="#084D92" fill-opacity="0.8"/>
<path d="M693.457 46.6127L692.932 48.5742L705.36 51.908L705.885 49.9465L693.457 46.6127Z" fill="#084D92" fill-opacity="0.8"/>
<path d="M705.124 53.6016H684.438V55.6323H705.124V53.6016Z" fill="#084D92" fill-opacity="0.8"/>
<path d="M705.324 57.3342L692.896 60.668L693.421 62.6295L705.849 59.2957L705.324 57.3342Z" fill="#084D92" fill-opacity="0.8"/>
<path d="M706.513 60.8925L688.595 71.25L689.609 73.0086L707.527 62.6511L706.513 60.8925Z" fill="#084D92" fill-opacity="0.8"/>
<path d="M708.61 64.0812L699.515 73.1875L700.949 74.6236L710.045 65.5174L708.61 64.0812Z" fill="#084D92" fill-opacity="0.8"/>
<path d="M711.453 66.6213L701.107 84.5605L702.864 85.5759L713.21 67.6367L711.453 66.6213Z" fill="#084D92" fill-opacity="0.8"/>
<path d="M714.807 68.2921L711.478 80.7344L713.437 81.2599L716.767 68.8177L714.807 68.2921Z" fill="#084D92" fill-opacity="0.8"/>
<path d="M720.514 69.0078H718.485V89.7185H720.514V69.0078Z" fill="#084D92" fill-opacity="0.8"/>
<path d="M724.174 68.2225L722.215 68.748L725.545 81.1904L727.504 80.6648L724.174 68.2225Z" fill="#084D92" fill-opacity="0.8"/>
<path d="M727.536 66.5335L725.779 67.5488L736.125 85.488L737.881 84.4727L727.536 66.5335Z" fill="#084D92" fill-opacity="0.8"/>
<path d="M730.371 64.074L728.937 65.5098L738.032 74.6161L739.466 73.1803L730.371 64.074Z" fill="#084D92" fill-opacity="0.8"/>
<path d="M732.477 60.9855L731.463 62.7441L749.381 73.1017L750.396 71.343L732.477 60.9855Z" fill="#084D92" fill-opacity="0.8"/>
<path d="M733.613 57.3254L733.089 59.2871L745.518 62.6182L746.042 60.6565L733.613 57.3254Z" fill="#084D92" fill-opacity="0.8"/>
<path d="M754.563 53.6016H733.876V55.6323H754.563V53.6016Z" fill="#084D92" fill-opacity="0.8"/>
<path d="M745.524 46.5491L733.097 49.8828L733.622 51.8443L746.049 48.5106L745.524 46.5491Z" fill="#084D92" fill-opacity="0.8"/>
<path d="M749.327 36.1386L731.408 46.4961L732.422 48.2547L750.341 37.8972L749.327 36.1386Z" fill="#084D92" fill-opacity="0.8"/>
<path d="M738.04 34.6261L728.944 43.7324L730.378 45.1682L739.474 36.0619L738.04 34.6261Z" fill="#084D92" fill-opacity="0.8"/>
<path d="M736.174 23.7502L725.828 41.6895L727.585 42.7048L737.93 24.7656L736.174 23.7502Z" fill="#084D92" fill-opacity="0.8"/>
<path d="M725.58 28.0459L722.25 40.4883L724.209 41.0138L727.539 28.5715L725.58 28.0459Z" fill="#084D92" fill-opacity="0.8"/>
<path d="M176.395 330.941V310.054H169.151V280.463H167.412V310.054H156.111V297.289H154.373V310.054H134.378V330.941H79.0322V520.671H191.173V330.941H176.395ZM136.117 311.794H174.656V330.941H136.117V311.794ZM166.543 518.93V404.628H164.804V518.93H80.7708V344.866H168.282V343.126H80.7708V332.682H134.378H176.395H189.435V375.328H164.804V398.246H166.543V377.068H189.435V518.93H166.543Z" fill="#084D92" fill-opacity="0.8"/>
<path d="M155.243 320.498H143.072V322.239H155.243V320.498Z" fill="#084D92" fill-opacity="0.8"/>
<path d="M149.157 362.852H94.3906V364.592H149.157V362.852Z" fill="#084D92" fill-opacity="0.8"/>
<path d="M124.237 382.582H94.3906V384.323H124.237V382.582Z" fill="#084D92" fill-opacity="0.8"/>
<path d="M149.157 402.309H94.3906V404.049H149.157V402.309Z" fill="#084D92" fill-opacity="0.8"/>
<path d="M124.237 422.035H94.3906V423.776H124.237V422.035Z" fill="#084D92" fill-opacity="0.8"/>
<path d="M149.157 441.762H94.3906V443.502H149.157V441.762Z" fill="#084D92" fill-opacity="0.8"/>
<path d="M124.237 461.488H94.3906V463.229H124.237V461.488Z" fill="#084D92" fill-opacity="0.8"/>
<path d="M149.157 481.219H94.3906V482.959H149.157V481.219Z" fill="#084D92" fill-opacity="0.8"/>
<path d="M149.157 382.582H129.742V384.323H149.157V382.582Z" fill="#084D92" fill-opacity="0.8"/>
<path d="M149.157 422.035H129.742V423.776H149.157V422.035Z" fill="#084D92" fill-opacity="0.8"/>
<path d="M149.157 461.488H129.742V463.229H149.157V461.488Z" fill="#084D92" fill-opacity="0.8"/>
<path d="M290.857 320.789V303.382H241.886V263.928H189.438V520.672H300.999V320.789H290.857ZM289.119 305.123V320.789H241.886V305.123H289.119ZM299.26 518.931H191.176V265.668H240.147V322.529H299.26V518.931Z" fill="#084D92" fill-opacity="0.8"/>
<path d="M267.965 312.086H246.812V313.827H267.965V312.086Z" fill="#084D92" fill-opacity="0.8"/>
<path d="M279.847 312.086H272.312V313.827H279.847V312.086Z" fill="#084D92" fill-opacity="0.8"/>
<path d="M230.585 278.432H199V290.616H230.585V278.432ZM228.846 288.875H200.739V280.172H228.846V288.875Z" fill="#084D92" fill-opacity="0.8"/>
<path d="M230.585 299.32H199V311.505H230.585V299.32ZM228.846 309.764H200.739V301.061H228.846V309.764Z" fill="#084D92" fill-opacity="0.8"/>
<path d="M221.312 321.076H199.869V322.817H221.312V321.076Z" fill="#084D92" fill-opacity="0.8"/>
<path d="M229.715 321.076H223.92V322.817H229.715V321.076Z" fill="#084D92" fill-opacity="0.8"/>
<path d="M201.317 352.701H228.846V346.028H261.879V352.701H289.408V337.615H201.317V352.701ZM203.056 339.356H287.669V350.96H263.618V344.288H227.107V350.96H203.056V339.356Z" fill="#084D92" fill-opacity="0.8"/>
<path d="M201.317 382.871H228.846V376.198H261.879V382.871H289.408V367.785H201.317V382.871ZM203.056 369.526H287.669V381.13H263.618V374.458H227.107V381.13H203.056V369.526Z" fill="#084D92" fill-opacity="0.8"/>
<path d="M201.317 413.043H228.846V406.37H261.879V413.043H289.408V397.957H201.317V413.043ZM203.056 399.698H287.669V411.302H263.618V404.629H227.107V411.302H203.056V399.698Z" fill="#084D92" fill-opacity="0.8"/>
<path d="M201.317 443.212H228.846V436.54H261.879V443.212H289.408V428.127H201.317V443.212ZM203.056 429.868H287.669V441.472H263.618V434.799H227.107V441.472H203.056V429.868Z" fill="#084D92" fill-opacity="0.8"/>
<path d="M201.317 473.386H228.846V466.714H261.879V473.386H289.408V458.301H201.317V473.386ZM203.056 460.041H287.669V471.646H263.618V464.973H227.107V471.646H203.056V460.041Z" fill="#084D92" fill-opacity="0.8"/>
<path d="M324.47 283.652H310.851V285.393H324.47V283.652Z" fill="#084D92" fill-opacity="0.8"/>
<path d="M368.806 299.318H355.187V301.059H368.806V299.318Z" fill="#084D92" fill-opacity="0.8"/>
<path d="M368.806 413.912H355.187V415.653H368.806V413.912Z" fill="#084D92" fill-opacity="0.8"/>
<path d="M342.727 413.912H329.107V415.653H342.727V413.912Z" fill="#084D92" fill-opacity="0.8"/>
<path d="M327.657 444.951H314.038V446.692H327.657V444.951Z" fill="#084D92" fill-opacity="0.8"/>
<path d="M327.657 464.969H314.038V466.709H327.657V464.969Z" fill="#084D92" fill-opacity="0.8"/>
<path d="M356.055 464.969H342.436V466.709H356.055V464.969Z" fill="#084D92" fill-opacity="0.8"/>
<path d="M356.055 481.504H342.436V483.245H356.055V481.504Z" fill="#084D92" fill-opacity="0.8"/>
<path d="M349.391 299.318H335.771V301.059H349.391V299.318Z" fill="#084D92" fill-opacity="0.8"/>
<path d="M349.391 320.787H335.771V322.528H349.391V320.787Z" fill="#084D92" fill-opacity="0.8"/>
<path d="M325.05 345.158H311.721V346.899H325.05V345.158Z" fill="#084D92" fill-opacity="0.8"/>
<path d="M355.765 375.906H342.436V377.647H355.765V375.906Z" fill="#084D92" fill-opacity="0.8"/>
<path d="M355.765 386.932H342.436V388.672H355.765V386.932Z" fill="#084D92" fill-opacity="0.8"/>
<path d="M379.527 178.345V163.26H300.999V178.345H289.118V272.234L299.26 273.551V402.307V435.96V520.671H381.265V364.593V330.941V284.198L390.426 285.387L391.407 285.515V178.345H379.527ZM302.737 165H377.788V178.345H302.737V165ZM300.999 404.048H317.805V434.219H300.999V404.048ZM379.527 362.853H362.72V332.682H379.527V362.853ZM379.527 330.941H360.981V364.593H379.527V518.93H300.999V435.96H319.544V402.307H300.999V273.777L379.527 283.972V330.941ZM389.669 283.534L290.857 270.705V180.086H300.999H379.527H389.669V283.534Z" fill="#084D92" fill-opacity="0.8"/>
<path d="M303.896 214.899H363.299V213.158H305.635V206.196H375.18V214.029H376.919V204.455H303.896V214.899Z" fill="#084D92" fill-opacity="0.8"/>
<path d="M303.896 236.366H363.299V234.625H305.635V227.663H375.18V235.495H376.919V225.922H303.896V236.366Z" fill="#084D92" fill-opacity="0.8"/>
<path d="M303.896 257.834H363.299V256.094H305.635V249.131H375.18V256.964H376.919V247.391H303.896V257.834Z" fill="#084D92" fill-opacity="0.8"/>
<path d="M320.123 191.107H304.766V192.848H320.123V191.107Z" fill="#084D92" fill-opacity="0.8"/>
<path d="M376.05 191.107H327.948V192.848H376.05V191.107Z" fill="#084D92" fill-opacity="0.8"/>
<path d="M344.755 170.803H309.692V172.543H344.755V170.803Z" fill="#084D92" fill-opacity="0.8"/>
<path d="M368.806 170.803H351.999V172.543H368.806V170.803Z" fill="#084D92" fill-opacity="0.8"/>
<path d="M446.833 471.209H401.966V472.95H446.833V471.209Z" fill="#084D92" fill-opacity="0.8"/>
<path d="M458.948 471.209H450.723V472.95H458.948V471.209Z" fill="#084D92" fill-opacity="0.8"/>
<path d="M397.783 486.436V484.695H388.605V491.948H473.218V484.695H402.709V486.436H471.48V490.207H390.344V486.436H397.783Z" fill="#084D92" fill-opacity="0.8"/>
<path d="M397.783 432.479V430.738H388.605V437.991H473.218V430.738H402.709V432.479H471.48V436.25H390.344V432.479H397.783Z" fill="#084D92" fill-opacity="0.8"/>
<path d="M442.987 443.5H471.384V447.272H390.248V443.5H438.061V441.76H388.51V449.012H473.123V441.76H442.987V443.5Z" fill="#084D92" fill-opacity="0.8"/>
<path d="M388.414 460.04H404.157V458.299H390.153V454.528H471.288V458.299H409.083V460.04H473.027V452.787H388.414V460.04Z" fill="#084D92" fill-opacity="0.8"/>
<path d="M446.833 417.246H401.966V418.987H446.833V417.246Z" fill="#084D92" fill-opacity="0.8"/>
<path d="M458.948 417.246H450.723V418.987H458.948V417.246Z" fill="#084D92" fill-opacity="0.8"/>
<path d="M482.347 412.75V370.105H459.793V358.791H455.385L452.938 325.428H447.333V318.176H414.589V325.428H408.984L406.537 358.791H402.129V370.105H379.479V412.75H392.808V424.065H379.479V466.71H392.808V478.024H379.479V520.67H482.347V478.024H469.018V466.71H482.347V424.065H469.018V412.75H482.347ZM416.328 319.916H445.595V325.428H416.328V319.916ZM410.6 327.169H414.589H447.333H451.322L453.642 358.791H408.281L410.6 327.169ZM403.868 360.531H406.409H455.513H458.054V370.105H403.867L403.868 360.531ZM381.217 411.01V371.845H402.129H459.793H480.608V411.01H469.018H392.808H381.217ZM480.608 479.765V518.929H381.217V479.765H392.808H469.018H480.608ZM467.279 478.024H394.547V466.71H467.279V478.024ZM480.608 425.805V464.97H469.018H392.808H381.217V425.805H392.808H469.018H480.608ZM467.279 424.065H394.547V412.75H467.279V424.065Z" fill="#084D92" fill-opacity="0.8"/>
<path d="M473.218 376.777H402.709V378.518H471.48V382.289H390.344V378.518H397.783V376.777H388.605V384.03H473.218V376.777Z" fill="#084D92" fill-opacity="0.8"/>
<path d="M473.123 387.803H442.987V389.543H471.384V393.315H390.248V389.543H438.061V387.803H388.51V395.055H473.123V387.803Z" fill="#084D92" fill-opacity="0.8"/>
<path d="M409.083 404.336V406.077H473.027V398.824H388.414V406.077H404.157V404.336H390.153V400.565H471.288V404.336H409.083Z" fill="#084D92" fill-opacity="0.8"/>
<path d="M420.184 364.447H410.688V366.188H420.184V364.447Z" fill="#084D92" fill-opacity="0.8"/>
<path d="M450.521 364.447H424.307V366.188H450.521V364.447Z" fill="#084D92" fill-opacity="0.8"/>
<path d="M415.168 339.064H422.122V332.102H415.168V339.064ZM416.907 333.842H420.384V337.323H416.907V333.842Z" fill="#084D92" fill-opacity="0.8"/>
<path d="M426.325 350.234H433.28V343.271H426.325V350.234ZM428.064 345.012H431.541V348.493H428.064V345.012Z" fill="#084D92" fill-opacity="0.8"/>
<path d="M439.219 350.379H446.173V343.416H439.219V350.379ZM440.957 345.157H444.435V348.638H440.957V345.157Z" fill="#084D92" fill-opacity="0.8"/>
<path d="M527.661 262.191H491.234V263.932H527.661V262.191Z" fill="#084D92" fill-opacity="0.8"/>
<path d="M514.851 272.053H491.234V273.793H514.851V272.053Z" fill="#084D92" fill-opacity="0.8"/>
<path d="M527.661 281.918H491.234V283.659H527.661V281.918Z" fill="#084D92" fill-opacity="0.8"/>
<path d="M514.851 291.783H491.234V293.524H514.851V291.783Z" fill="#084D92" fill-opacity="0.8"/>
<path d="M527.661 301.645H491.234V303.385H527.661V301.645Z" fill="#084D92" fill-opacity="0.8"/>
<path d="M514.851 311.51H491.234V313.25H514.851V311.51Z" fill="#084D92" fill-opacity="0.8"/>
<path d="M527.661 321.371H491.234V323.112H527.661V321.371Z" fill="#084D92" fill-opacity="0.8"/>
<path d="M514.851 331.236H491.234V332.977H514.851V331.236Z" fill="#084D92" fill-opacity="0.8"/>
<path d="M527.661 341.098H491.234V342.838H527.661V341.098Z" fill="#084D92" fill-opacity="0.8"/>
<path d="M514.851 350.963H491.234V352.704H514.851V350.963Z" fill="#084D92" fill-opacity="0.8"/>
<path d="M527.661 360.828H491.234V362.569H527.661V360.828Z" fill="#084D92" fill-opacity="0.8"/>
<path d="M514.851 370.689H491.234V372.43H514.851V370.689Z" fill="#084D92" fill-opacity="0.8"/>
<path d="M527.661 380.555H491.234V382.295H527.661V380.555Z" fill="#084D92" fill-opacity="0.8"/>
<path d="M514.851 390.416H491.234V392.157H514.851V390.416Z" fill="#084D92" fill-opacity="0.8"/>
<path d="M527.661 400.281H491.234V402.022H527.661V400.281Z" fill="#084D92" fill-opacity="0.8"/>
<path d="M514.851 410.146H491.234V411.887H514.851V410.146Z" fill="#084D92" fill-opacity="0.8"/>
<path d="M527.661 420.008H491.234V421.748H527.661V420.008Z" fill="#084D92" fill-opacity="0.8"/>
<path d="M514.851 429.873H491.234V431.614H514.851V429.873Z" fill="#084D92" fill-opacity="0.8"/>
<path d="M527.661 439.734H491.234V441.475H527.661V439.734Z" fill="#084D92" fill-opacity="0.8"/>
<path d="M514.851 449.6H491.234V451.34H514.851V449.6Z" fill="#084D92" fill-opacity="0.8"/>
<path d="M527.661 459.465H491.234V461.205H527.661V459.465Z" fill="#084D92" fill-opacity="0.8"/>
<path d="M514.851 469.326H491.234V471.067H514.851V469.326Z" fill="#084D92" fill-opacity="0.8"/>
<path d="M527.661 479.191H491.234V480.932H527.661V479.191Z" fill="#084D92" fill-opacity="0.8"/>
<path d="M527.89 272.053H518.907V273.793H527.89V272.053Z" fill="#084D92" fill-opacity="0.8"/>
<path d="M527.89 291.783H518.907V293.524H527.89V291.783Z" fill="#084D92" fill-opacity="0.8"/>
<path d="M527.89 311.51H518.907V313.25H527.89V311.51Z" fill="#084D92" fill-opacity="0.8"/>
<path d="M527.89 331.236H518.907V332.977H527.89V331.236Z" fill="#084D92" fill-opacity="0.8"/>
<path d="M527.89 350.963H518.907V352.704H527.89V350.963Z" fill="#084D92" fill-opacity="0.8"/>
<path d="M527.89 370.689H518.907V372.43H527.89V370.689Z" fill="#084D92" fill-opacity="0.8"/>
<path d="M527.89 390.416H518.907V392.157H527.89V390.416Z" fill="#084D92" fill-opacity="0.8"/>
<path d="M527.89 410.146H518.907V411.887H527.89V410.146Z" fill="#084D92" fill-opacity="0.8"/>
<path d="M527.89 429.873H518.907V431.614H527.89V429.873Z" fill="#084D92" fill-opacity="0.8"/>
<path d="M527.89 449.6H518.907V451.34H527.89V449.6Z" fill="#084D92" fill-opacity="0.8"/>
<path d="M527.89 469.326H518.907V471.067H527.89V469.326Z" fill="#084D92" fill-opacity="0.8"/>
<path d="M607.142 262.191H570.715V263.932H607.142V262.191Z" fill="#084D92" fill-opacity="0.8"/>
<path d="M607.141 272.053H583.524V273.793H607.141V272.053Z" fill="#084D92" fill-opacity="0.8"/>
<path d="M607.142 281.918H570.715V283.659H607.142V281.918Z" fill="#084D92" fill-opacity="0.8"/>
<path d="M607.141 291.783H583.524V293.524H607.141V291.783Z" fill="#084D92" fill-opacity="0.8"/>
<path d="M607.142 301.645H570.715V303.385H607.142V301.645Z" fill="#084D92" fill-opacity="0.8"/>
<path d="M607.141 311.51H583.524V313.25H607.141V311.51Z" fill="#084D92" fill-opacity="0.8"/>
<path d="M607.142 321.371H570.715V323.112H607.142V321.371Z" fill="#084D92" fill-opacity="0.8"/>
<path d="M607.141 331.236H583.524V332.977H607.141V331.236Z" fill="#084D92" fill-opacity="0.8"/>
<path d="M607.142 341.098H570.715V342.838H607.142V341.098Z" fill="#084D92" fill-opacity="0.8"/>
<path d="M607.141 350.963H583.524V352.704H607.141V350.963Z" fill="#084D92" fill-opacity="0.8"/>
<path d="M607.142 360.828H570.715V362.569H607.142V360.828Z" fill="#084D92" fill-opacity="0.8"/>
<path d="M607.141 370.689H583.524V372.43H607.141V370.689Z" fill="#084D92" fill-opacity="0.8"/>
<path d="M607.142 380.555H570.715V382.295H607.142V380.555Z" fill="#084D92" fill-opacity="0.8"/>
<path d="M607.141 390.416H583.524V392.157H607.141V390.416Z" fill="#084D92" fill-opacity="0.8"/>
<path d="M607.142 400.281H570.715V402.022H607.142V400.281Z" fill="#084D92" fill-opacity="0.8"/>
<path d="M607.141 410.146H583.524V411.887H607.141V410.146Z" fill="#084D92" fill-opacity="0.8"/>
<path d="M607.142 420.008H570.715V421.748H607.142V420.008Z" fill="#084D92" fill-opacity="0.8"/>
<path d="M607.141 429.873H583.524V431.614H607.141V429.873Z" fill="#084D92" fill-opacity="0.8"/>
<path d="M607.142 439.734H570.715V441.475H607.142V439.734Z" fill="#084D92" fill-opacity="0.8"/>
<path d="M607.141 449.6H583.524V451.34H607.141V449.6Z" fill="#084D92" fill-opacity="0.8"/>
<path d="M607.142 459.465H570.715V461.205H607.142V459.465Z" fill="#084D92" fill-opacity="0.8"/>
<path d="M607.141 469.326H583.524V471.067H607.141V469.326Z" fill="#084D92" fill-opacity="0.8"/>
<path d="M607.142 479.191H570.715V480.932H607.142V479.191Z" fill="#084D92" fill-opacity="0.8"/>
<path d="M579.468 272.053H570.485V273.793H579.468V272.053Z" fill="#084D92" fill-opacity="0.8"/>
<path d="M579.468 291.783H570.485V293.524H579.468V291.783Z" fill="#084D92" fill-opacity="0.8"/>
<path d="M579.468 311.51H570.485V313.25H579.468V311.51Z" fill="#084D92" fill-opacity="0.8"/>
<path d="M579.468 331.236H570.485V332.977H579.468V331.236Z" fill="#084D92" fill-opacity="0.8"/>
<path d="M579.468 350.963H570.485V352.704H579.468V350.963Z" fill="#084D92" fill-opacity="0.8"/>
<path d="M579.468 370.689H570.485V372.43H579.468V370.689Z" fill="#084D92" fill-opacity="0.8"/>
<path d="M579.468 390.416H570.485V392.157H579.468V390.416Z" fill="#084D92" fill-opacity="0.8"/>
<path d="M579.468 410.146H570.485V411.887H579.468V410.146Z" fill="#084D92" fill-opacity="0.8"/>
<path d="M579.468 429.873H570.485V431.614H579.468V429.873Z" fill="#084D92" fill-opacity="0.8"/>
<path d="M579.468 449.6H570.485V451.34H579.468V449.6Z" fill="#084D92" fill-opacity="0.8"/>
<path d="M579.468 469.326H570.485V471.067H579.468V469.326Z" fill="#084D92" fill-opacity="0.8"/>
<path d="M550.057 259.588H548.318V420.878H550.057V259.588Z" fill="#084D92" fill-opacity="0.8"/>
<path d="M550.057 427.361H548.318V443.795H550.057V427.361Z" fill="#084D92" fill-opacity="0.8"/>
<path d="M550.057 450.57H548.318V507.619H550.057V450.57Z" fill="#084D92" fill-opacity="0.8"/>
<path d="M480.512 215.773V247.395V249.136V520.675H536.727H538.466H559.909H561.647H617.863V249.136V247.395V215.773H480.512ZM536.727 518.934H482.25V249.136H536.727V518.934ZM559.909 518.934H538.466V249.136H559.909V518.934ZM616.124 518.934H561.647V249.136H616.124V518.934ZM561.647 247.395H559.909H538.466H536.727H482.25V217.514H616.124V247.395H561.647Z" fill="#084D92" fill-opacity="0.8"/>
<path d="M521.08 231.439H511.518V233.18H521.08V231.439Z" fill="#084D92" fill-opacity="0.8"/>
<path d="M526.005 233.18H601.056V238.982H497.318V233.18H506.59V231.439H495.579V240.723H602.794V231.439H526.005V233.18Z" fill="#084D92" fill-opacity="0.8"/>
<path d="M569.07 223.953H496.45V225.694H569.07V223.953Z" fill="#084D92" fill-opacity="0.8"/>
<path d="M601.926 223.953H573.706V225.694H601.926V223.953Z" fill="#084D92" fill-opacity="0.8"/>
<path d="M683.783 317.886H678.133V296.708H661.616V286.264H656.11V260.482H654.371V286.264H646.267V275.821H644.528V286.264H621.917V296.708V298.449V317.886H616.267V420.984L621.917 422.305V520.67H678.133V435.445L683.783 436.766V317.886ZM623.656 288.005H659.877V296.708H623.656V288.005ZM623.656 298.449H661.616H676.394V317.886H623.656V298.449ZM676.394 518.93H623.656V422.711L676.394 435.039V518.93ZM682.044 434.572L618.005 419.603V319.627H682.044V434.572Z" fill="#084D92" fill-opacity="0.8"/>
<path d="M638.144 435.668H631.769V444.951H638.144V435.668ZM636.405 443.211H633.507V437.409H636.405V443.211Z" fill="#084D92" fill-opacity="0.8"/>
<path d="M656.689 454.234H650.314V463.518H656.689V454.234ZM654.951 461.777H652.053V455.975H654.951V461.777Z" fill="#084D92" fill-opacity="0.8"/>
<path d="M652.054 477.734H645.679V487.018H652.054V477.734ZM650.315 485.277H647.417V479.475H650.315V485.277Z" fill="#084D92" fill-opacity="0.8"/>
<path d="M667.99 454.234H661.615V463.518H667.99V454.234ZM666.252 461.777H663.354V455.975H666.252V461.777Z" fill="#084D92" fill-opacity="0.8"/>
<path d="M677.264 330.736H622.787V332.477H677.264V330.736Z" fill="#084D92" fill-opacity="0.8"/>
<path d="M677.408 339.932H660.167V341.672H677.408V339.932Z" fill="#084D92" fill-opacity="0.8"/>
<path d="M655.24 339.932H622.931V341.672H655.24V339.932Z" fill="#084D92" fill-opacity="0.8"/>
<path d="M677.553 349.133H623.076V350.873H677.553V349.133Z" fill="#084D92" fill-opacity="0.8"/>
<path d="M677.698 358.332H639.593V360.073H677.698V358.332Z" fill="#084D92" fill-opacity="0.8"/>
<path d="M634.668 358.332H623.222V360.073H634.668V358.332Z" fill="#084D92" fill-opacity="0.8"/>
<path d="M677.842 367.531H623.365V369.272H677.842V367.531Z" fill="#084D92" fill-opacity="0.8"/>
<path d="M677.988 376.732H664.514V378.473H677.988V376.732Z" fill="#084D92" fill-opacity="0.8"/>
<path d="M659.587 376.732H623.511V378.473H659.587V376.732Z" fill="#084D92" fill-opacity="0.8"/>
<path d="M678.133 385.932H623.656V387.672H678.133V385.932Z" fill="#084D92" fill-opacity="0.8"/>
<path d="M678.277 395.129H648.286V396.87H678.277V395.129Z" fill="#084D92" fill-opacity="0.8"/>
<path d="M643.36 395.129H623.801V396.87H643.36V395.129Z" fill="#084D92" fill-opacity="0.8"/>
<path d="M678.422 404.328H623.945V406.069H678.422V404.328Z" fill="#084D92" fill-opacity="0.8"/>
<path d="M678.568 413.527H666.253V415.268H678.568V413.527Z" fill="#084D92" fill-opacity="0.8"/>
<path d="M661.325 413.527H624.09V415.268H661.325V413.527Z" fill="#084D92" fill-opacity="0.8"/>
<path d="M628.003 304.541V312.084H663.065V310.343H629.742V306.282H670.309V310.343H666.253V312.084H672.048V304.541H628.003Z" fill="#084D92" fill-opacity="0.8"/>
<path d="M636.199 291.488H628.272V293.229H636.199V291.488Z" fill="#084D92" fill-opacity="0.8"/>
<path d="M655.386 291.488H638.995V293.229H655.386V291.488Z" fill="#084D92" fill-opacity="0.8"/>
<path d="M646.258 267.844H644.52V273.066H646.258V267.844Z" fill="#084D92" fill-opacity="0.8"/>
<path d="M749.709 208.807V195.752H734.93V183.328L724.064 165.051V139.312H722.325V165.051L711.459 183.328V195.752H696.681V208.807H681.902V520.671H764.487V208.807H749.709ZM713.198 183.807L723.195 166.992L733.192 183.807V195.752H713.198V183.807ZM698.419 197.492H711.459H734.93H747.97V208.807H698.419V197.492ZM762.748 518.93H683.641V210.547H696.681H749.709H762.748V518.93Z" fill="#084D92" fill-opacity="0.8"/>
<path d="M708.851 226.215H753.186V233.72H693.203V226.215H703.056V224.475H691.465V235.461H754.925V224.475H708.851V226.215Z" fill="#084D92" fill-opacity="0.8"/>
<path d="M691.465 255.913H754.925V244.926H691.465V255.913ZM693.203 246.666H753.186V254.173H693.203V246.666Z" fill="#084D92" fill-opacity="0.8"/>
<path d="M732.901 265.383H724.208V267.123H732.901V265.383Z" fill="#084D92" fill-opacity="0.8"/>
<path d="M738.697 267.123H753.186V274.628H693.203V267.123H718.413V265.383H691.465V276.369H754.925V265.383H738.697V267.123Z" fill="#084D92" fill-opacity="0.8"/>
<path d="M691.465 296.825H754.925V285.838H691.465V296.825ZM693.203 287.579H753.186V295.085H693.203V287.579Z" fill="#084D92" fill-opacity="0.8"/>
<path d="M691.465 317.279H701.317V315.539H693.203V308.034H753.186V315.539H707.112V317.279H754.925V306.293H691.465V317.279Z" fill="#084D92" fill-opacity="0.8"/>
<path d="M691.465 337.737H754.925V326.75H691.465V337.737ZM693.203 328.491H753.186V335.997H693.203V328.491Z" fill="#084D92" fill-opacity="0.8"/>
<path d="M738.118 348.946H753.186V356.451H693.203V348.946H732.322V347.205H691.465V358.191H754.925V347.205H738.118V348.946Z" fill="#084D92" fill-opacity="0.8"/>
<path d="M691.465 378.648H754.925V367.66H691.465V378.648ZM693.203 369.401H753.186V376.907H693.203V369.401Z" fill="#084D92" fill-opacity="0.8"/>
<path d="M691.465 399.102H703.056V397.361H693.203V389.856H753.186V397.361H721.601V399.102H754.925V388.115H691.465V399.102Z" fill="#084D92" fill-opacity="0.8"/>
<path d="M715.806 397.361H708.852V399.102H715.806V397.361Z" fill="#084D92" fill-opacity="0.8"/>
<path d="M691.465 419.556H754.925V408.568H691.465V419.556ZM693.203 410.309H753.186V417.815H693.203V410.309Z" fill="#084D92" fill-opacity="0.8"/>
<path d="M746.521 430.768H753.186V438.273H693.203V430.768H740.726V429.027H691.465V440.014H754.925V429.027H746.521V430.768Z" fill="#084D92" fill-opacity="0.8"/>
<path d="M691.465 460.468H754.925V449.48H691.465V460.468ZM693.203 451.221H753.186V458.727H693.203V451.221Z" fill="#084D92" fill-opacity="0.8"/>
<path d="M708.851 471.676H753.186V479.181H693.203V471.676H703.056V469.936H691.465V480.922H754.925V469.936H708.851V471.676Z" fill="#084D92" fill-opacity="0.8"/>
<path d="M712.327 202.279H703.942V204.02H712.327V202.279Z" fill="#084D92" fill-opacity="0.8"/>
<path d="M742.319 202.279H716.402V204.02H742.319V202.279Z" fill="#084D92" fill-opacity="0.8"/>
<path d="M849.678 254.066V243.042H839.246V232.018H830.843V212.58H829.105V232.018H823.683V198.365H821.944V232.018H814.906V243.042H804.474V254.066H792.014V294.971H762.747V520.673H792.014H793.753H862.138V254.066H849.678ZM816.644 233.758H837.508V243.042H816.644V233.758ZM806.213 244.782H814.906H839.246H847.94V254.066H806.213V244.782ZM792.014 518.933H764.486V296.711H792.014V518.933ZM860.4 518.933H793.753V294.971V255.806H804.474H849.678H860.4V518.933Z" fill="#084D92" fill-opacity="0.8"/>
<path d="M799.258 279.016H854.604V267.992H799.258V279.016ZM800.996 269.733H852.865V277.276H800.996V269.733Z" fill="#084D92" fill-opacity="0.8"/>
<path d="M799.258 307.165H854.604V296.141H799.258V307.165ZM800.996 297.881H852.865V305.424H800.996V297.881Z" fill="#084D92" fill-opacity="0.8"/>
<path d="M833.58 286.709H800.126V288.45H833.58V286.709Z" fill="#084D92" fill-opacity="0.8"/>
<path d="M853.735 286.709H839.863V288.45H853.735V286.709Z" fill="#084D92" fill-opacity="0.8"/>
<path d="M799.258 335.305H854.604V324.281H799.258V335.305ZM800.996 326.022H852.865V333.565H800.996V326.022Z" fill="#084D92" fill-opacity="0.8"/>
<path d="M833.58 314.848H800.126V316.588H833.58V314.848Z" fill="#084D92" fill-opacity="0.8"/>
<path d="M853.735 314.848H839.863V316.588H853.735V314.848Z" fill="#084D92" fill-opacity="0.8"/>
<path d="M799.258 363.446H854.604V352.422H799.258V363.446ZM800.996 354.163H852.865V361.705H800.996V354.163Z" fill="#084D92" fill-opacity="0.8"/>
<path d="M833.58 342.988H800.126V344.729H833.58V342.988Z" fill="#084D92" fill-opacity="0.8"/>
<path d="M853.735 342.988H839.863V344.729H853.735V342.988Z" fill="#084D92" fill-opacity="0.8"/>
<path d="M799.258 391.585H854.604V380.561H799.258V391.585ZM800.996 382.301H852.865V389.844H800.996V382.301Z" fill="#084D92" fill-opacity="0.8"/>
<path d="M833.58 371.127H800.126V372.868H833.58V371.127Z" fill="#084D92" fill-opacity="0.8"/>
<path d="M853.735 371.127H839.863V372.868H853.735V371.127Z" fill="#084D92" fill-opacity="0.8"/>
<path d="M799.258 419.725H854.604V408.701H799.258V419.725ZM800.996 410.442H852.865V417.985H800.996V410.442Z" fill="#084D92" fill-opacity="0.8"/>
<path d="M833.58 399.271H800.126V401.012H833.58V399.271Z" fill="#084D92" fill-opacity="0.8"/>
<path d="M853.735 399.271H839.863V401.012H853.735V399.271Z" fill="#084D92" fill-opacity="0.8"/>
<path d="M799.258 447.864H854.604V436.84H799.258V447.864ZM800.996 438.58H852.865V446.123H800.996V438.58Z" fill="#084D92" fill-opacity="0.8"/>
<path d="M833.58 427.41H800.126V429.151H833.58V427.41Z" fill="#084D92" fill-opacity="0.8"/>
<path d="M853.735 427.41H839.863V429.151H853.735V427.41Z" fill="#084D92" fill-opacity="0.8"/>
<path d="M799.258 476.006H854.604V464.982H799.258V476.006ZM800.996 466.723H852.865V474.266H800.996V466.723Z" fill="#084D92" fill-opacity="0.8"/>
<path d="M833.58 455.551H800.126V457.291H833.58V455.551Z" fill="#084D92" fill-opacity="0.8"/>
<path d="M853.735 455.551H839.863V457.291H853.735V455.551Z" fill="#084D92" fill-opacity="0.8"/>
<path d="M833.58 483.689H800.126V485.43H833.58V483.689Z" fill="#084D92" fill-opacity="0.8"/>
<path d="M853.735 483.689H839.863V485.43H853.735V483.689Z" fill="#084D92" fill-opacity="0.8"/>
<path d="M784.76 305.559H783.021V464.392H784.76V305.559Z" fill="#084D92" fill-opacity="0.8"/>
<path d="M784.76 470.809H783.021V512.259H784.76V470.809Z" fill="#084D92" fill-opacity="0.8"/>
<path d="M958.922 326.883V304.545H920.673V290.33H895.463V304.545H887.059V326.883H860.4V520.674H964.718V326.883H958.922ZM897.201 292.071H918.934V304.545H907.923H901.838V297.293H907.053V300.774H908.792V295.552H900.099V304.545H897.201V292.071ZM888.798 306.286H895.463H900.099H907.923H920.673H957.184V326.883H888.798V306.286ZM962.979 518.934H862.139V328.624H887.059H958.922H962.979V518.934Z" fill="#084D92" fill-opacity="0.8"/>
<path d="M936.385 315.713H896.332V317.454H936.385V315.713Z" fill="#084D92" fill-opacity="0.8"/>
<path d="M949.097 315.713H940.273V317.454H949.097V315.713Z" fill="#084D92" fill-opacity="0.8"/>
<path d="M871.412 354.155H879.815V343.131H871.412V354.155ZM873.15 344.871H878.076V352.414H873.15V344.871Z" fill="#084D92" fill-opacity="0.8"/>
<path d="M887.059 354.155H895.462V343.131H887.059V354.155ZM888.798 344.871H893.724V352.414H888.798V344.871Z" fill="#084D92" fill-opacity="0.8"/>
<path d="M929.655 354.155H938.059V343.131H929.655V354.155ZM931.394 344.871H936.32V352.414H931.394V344.871Z" fill="#084D92" fill-opacity="0.8"/>
<path d="M945.303 354.155H953.707V343.131H945.303V354.155ZM947.042 344.871H951.968V352.414H947.042V344.871Z" fill="#084D92" fill-opacity="0.8"/>
<path d="M922.701 347.77H902.22V349.51H922.701V347.77Z" fill="#084D92" fill-opacity="0.8"/>
<path d="M871.412 372.721H879.815V361.697H871.412V372.721ZM873.15 363.438H878.076V370.981H873.15V363.438Z" fill="#084D92" fill-opacity="0.8"/>
<path d="M887.059 372.721H895.462V361.697H887.059V372.721ZM888.798 363.438H893.724V370.981H888.798V363.438Z" fill="#084D92" fill-opacity="0.8"/>
<path d="M929.655 372.721H938.059V361.697H929.655V372.721ZM931.394 363.438H936.32V370.981H931.394V363.438Z" fill="#084D92" fill-opacity="0.8"/>
<path d="M945.303 372.721H953.707V361.697H945.303V372.721ZM947.042 363.438H951.968V370.981H947.042V363.438Z" fill="#084D92" fill-opacity="0.8"/>
<path d="M922.701 366.34H902.22V368.08H922.701V366.34Z" fill="#084D92" fill-opacity="0.8"/>
<path d="M871.412 391.286H879.815V380.262H871.412V391.286ZM873.15 382.002H878.076V389.545H873.15V382.002Z" fill="#084D92" fill-opacity="0.8"/>
<path d="M887.059 391.286H895.462V380.262H887.059V391.286ZM888.798 382.002H893.724V389.545H888.798V382.002Z" fill="#084D92" fill-opacity="0.8"/>
<path d="M929.655 391.286H938.059V380.262H929.655V391.286ZM931.394 382.002H936.32V389.545H931.394V382.002Z" fill="#084D92" fill-opacity="0.8"/>
<path d="M945.303 391.286H953.707V380.262H945.303V391.286ZM947.042 382.002H951.968V389.545H947.042V382.002Z" fill="#084D92" fill-opacity="0.8"/>
<path d="M922.701 384.906H902.22V386.647H922.701V384.906Z" fill="#084D92" fill-opacity="0.8"/>
<path d="M871.412 409.856H879.815V398.832H871.412V409.856ZM873.15 400.573H878.076V408.115H873.15V400.573Z" fill="#084D92" fill-opacity="0.8"/>
<path d="M887.059 409.856H895.462V398.832H887.059V409.856ZM888.798 400.573H893.724V408.115H888.798V400.573Z" fill="#084D92" fill-opacity="0.8"/>
<path d="M929.655 409.856H938.059V398.832H929.655V409.856ZM931.394 400.573H936.32V408.115H931.394V400.573Z" fill="#084D92" fill-opacity="0.8"/>
<path d="M945.303 409.856H953.707V398.832H945.303V409.856ZM947.042 400.573H951.968V408.115H947.042V400.573Z" fill="#084D92" fill-opacity="0.8"/>
<path d="M922.701 403.471H902.22V405.211H922.701V403.471Z" fill="#084D92" fill-opacity="0.8"/>
<path d="M871.412 428.421H879.815V417.396H871.412V428.421ZM873.15 419.137H878.076V426.68H873.15V419.137Z" fill="#084D92" fill-opacity="0.8"/>
<path d="M887.059 428.421H895.462V417.396H887.059V428.421ZM888.798 419.137H893.724V426.68H888.798V419.137Z" fill="#084D92" fill-opacity="0.8"/>
<path d="M929.655 428.421H938.059V417.396H929.655V428.421ZM931.394 419.137H936.32V426.68H931.394V419.137Z" fill="#084D92" fill-opacity="0.8"/>
<path d="M945.303 428.421H953.707V417.396H945.303V428.421ZM947.042 419.137H951.968V426.68H947.042V419.137Z" fill="#084D92" fill-opacity="0.8"/>
<path d="M922.701 422.037H902.22V423.778H922.701V422.037Z" fill="#084D92" fill-opacity="0.8"/>
<path d="M871.412 446.987H879.815V435.963H871.412V446.987ZM873.15 437.704H878.076V445.246H873.15V437.704Z" fill="#084D92" fill-opacity="0.8"/>
<path d="M887.059 446.987H895.462V435.963H887.059V446.987ZM888.798 437.704H893.724V445.246H888.798V437.704Z" fill="#084D92" fill-opacity="0.8"/>
<path d="M929.655 446.987H938.059V435.963H929.655V446.987ZM931.394 437.704H936.32V445.246H931.394V437.704Z" fill="#084D92" fill-opacity="0.8"/>
<path d="M945.303 446.987H953.707V435.963H945.303V446.987ZM947.042 437.704H951.968V445.246H947.042V437.704Z" fill="#084D92" fill-opacity="0.8"/>
<path d="M922.701 440.605H902.22V442.346H922.701V440.605Z" fill="#084D92" fill-opacity="0.8"/>
<path d="M871.412 465.553H879.815V454.529H871.412V465.553ZM873.15 456.27H878.076V463.813H873.15V456.27Z" fill="#084D92" fill-opacity="0.8"/>
<path d="M887.059 465.553H895.462V454.529H887.059V465.553ZM888.798 456.27H893.724V463.813H888.798V456.27Z" fill="#084D92" fill-opacity="0.8"/>
<path d="M929.655 465.553H938.059V454.529H929.655V465.553ZM931.394 456.27H936.32V463.813H931.394V456.27Z" fill="#084D92" fill-opacity="0.8"/>
<path d="M945.303 465.553H953.707V454.529H945.303V465.553ZM947.042 456.27H951.968V463.813H947.042V456.27Z" fill="#084D92" fill-opacity="0.8"/>
<path d="M922.701 459.172H902.22V460.913H922.701V459.172Z" fill="#084D92" fill-opacity="0.8"/>
<path d="M871.412 484.122H879.815V473.098H871.412V484.122ZM873.15 474.838H878.076V482.381H873.15V474.838Z" fill="#084D92" fill-opacity="0.8"/>
<path d="M887.059 484.122H895.462V473.098H887.059V484.122ZM888.798 474.838H893.724V482.381H888.798V474.838Z" fill="#084D92" fill-opacity="0.8"/>
<path d="M929.655 484.122H938.059V473.098H929.655V484.122ZM931.394 474.838H936.32V482.381H931.394V474.838Z" fill="#084D92" fill-opacity="0.8"/>
<path d="M945.303 484.122H953.707V473.098H945.303V484.122ZM947.042 474.838H951.968V482.381H947.042V474.838Z" fill="#084D92" fill-opacity="0.8"/>
<path d="M922.701 477.738H902.22V479.479H922.701V477.738Z" fill="#084D92" fill-opacity="0.8"/>
<path d="M978.27 361.693H972.662V363.434H978.27V361.693Z" fill="#084D92" fill-opacity="0.8"/>
<path d="M978.27 383.453H972.662V385.194H978.27V383.453Z" fill="#084D92" fill-opacity="0.8"/>
<path d="M978.27 405.211H972.662V406.952H978.27V405.211Z" fill="#084D92" fill-opacity="0.8"/>
<path d="M978.27 426.969H972.662V428.709H978.27V426.969Z" fill="#084D92" fill-opacity="0.8"/>
<path d="M978.27 448.725H972.662V450.465H978.27V448.725Z" fill="#084D92" fill-opacity="0.8"/>
<path d="M978.27 470.486H972.662V472.227H978.27V470.486Z" fill="#084D92" fill-opacity="0.8"/>
<path d="M1030.95 361.693H1025.35V363.434H1030.95V361.693Z" fill="#084D92" fill-opacity="0.8"/>
<path d="M1030.95 383.453H1025.35V385.194H1030.95V383.453Z" fill="#084D92" fill-opacity="0.8"/>
<path d="M1030.95 405.211H1025.35V406.952H1030.95V405.211Z" fill="#084D92" fill-opacity="0.8"/>
<path d="M1030.95 426.969H1025.35V428.709H1030.95V426.969Z" fill="#084D92" fill-opacity="0.8"/>
<path d="M1030.95 448.725H1025.35V450.465H1030.95V448.725Z" fill="#084D92" fill-opacity="0.8"/>
<path d="M1030.95 470.486H1025.35V472.227H1030.95V470.486Z" fill="#084D92" fill-opacity="0.8"/>
<path d="M1093.02 361.693H1087.41V363.434H1093.02V361.693Z" fill="#084D92" fill-opacity="0.8"/>
<path d="M1093.02 383.453H1087.41V385.194H1093.02V383.453Z" fill="#084D92" fill-opacity="0.8"/>
<path d="M1093.02 405.211H1087.41V406.952H1093.02V405.211Z" fill="#084D92" fill-opacity="0.8"/>
<path d="M1093.02 426.969H1087.41V428.709H1093.02V426.969Z" fill="#084D92" fill-opacity="0.8"/>
<path d="M1093.02 448.725H1087.41V450.465H1093.02V448.725Z" fill="#084D92" fill-opacity="0.8"/>
<path d="M1093.02 470.486H1087.41V472.227H1093.02V470.486Z" fill="#084D92" fill-opacity="0.8"/>
<path d="M1155.1 368.367V352.701H1137.13H1135.39H1097.72H1095.98H1079.76H1078.02H1040.35H1038.61H1022.38H1020.64H982.973H981.234H963.269V368.367H981.234V374.459H963.269V390.125H981.234V396.217H963.269V411.883H981.234V417.975H963.269V433.641H981.234V439.733H963.269V455.399H981.234V461.491H963.269V477.157H981.234V483.249H963.269V498.915H981.234V505.007H963.269V520.673H981.234H982.973H994.854H1008.76H1020.64H1022.38H1038.61H1040.35H1052.23H1066.14H1078.02H1079.76H1095.98H1097.72H1109.6H1123.51H1135.39H1137.13H1155.1V505.007H1137.13V498.915H1155.1V483.249H1137.13V477.157H1155.1V461.491H1137.13V455.399H1155.1V439.733H1137.13V433.641H1155.1V417.975H1137.13V411.883H1155.1V396.217H1137.13V390.125H1155.1V374.459H1137.13V368.367H1155.1ZM1137.13 354.442H1153.36V366.626H1137.13V354.442ZM1095.98 497.174H1079.76V484.99H1095.98V497.174ZM1095.98 498.915V505.007H1079.76V498.915H1095.98ZM1079.76 483.249V477.157H1095.98V483.249H1079.76ZM1095.98 475.416H1079.76V463.232H1095.98V475.416ZM1079.76 461.491V455.399H1095.98V461.491H1079.76ZM1095.98 453.658H1079.76V441.474H1095.98V453.658ZM1079.76 439.733V433.641H1095.98V439.733H1079.76ZM1095.98 431.9H1079.76V419.716H1095.98V431.9ZM1079.76 417.975V411.883H1095.98V417.975H1079.76ZM1095.98 410.142H1079.76V397.958H1095.98V410.142ZM1079.76 396.217V390.125H1095.98V396.217H1079.76ZM1095.98 388.384H1079.76V376.2H1095.98V388.384ZM1079.76 374.459V368.367H1095.98V374.459H1079.76ZM1079.76 354.442H1095.98V366.626H1079.76V354.442ZM1038.61 497.174H1022.38V484.99H1038.61V497.174ZM1038.61 498.915V505.007H1022.38V498.915H1038.61ZM1022.38 483.249V477.157H1038.61V483.249H1022.38ZM1038.61 475.416H1022.38V463.232H1038.61V475.416ZM1022.38 461.491V455.399H1038.61V461.491H1022.38ZM1038.61 453.658H1022.38V441.474H1038.61V453.658ZM1022.38 439.733V433.641H1038.61V439.733H1022.38ZM1038.61 431.9H1022.38V419.716H1038.61V431.9ZM1022.38 417.975V411.883H1038.61V417.975H1022.38ZM1038.61 410.142H1022.38V397.958H1038.61V410.142ZM1022.38 396.217V390.125H1038.61V396.217H1022.38ZM1038.61 388.384H1022.38V376.2H1038.61V388.384ZM1022.38 374.459V368.367H1038.61V374.459H1022.38ZM1022.38 354.442H1038.61V366.626H1022.38V354.442ZM965.007 366.626V354.442H981.234V366.626H965.007ZM965.007 388.384V376.2H981.234V388.384H965.007ZM965.007 410.142V397.958H981.234V410.142H965.007ZM965.007 431.9V419.716H981.234V431.9H965.007ZM965.007 453.658V441.474H981.234V453.658H965.007ZM965.007 475.416V463.232H981.234V475.416H965.007ZM965.007 497.174V484.99H981.234V497.174H965.007ZM981.234 518.932H965.007V506.748H981.234V518.932ZM1002.68 518.932V476.286H1000.94V518.932H996.592V363.435H1007.02V518.932H1002.68ZM1020.64 518.932H1008.76V361.694H994.854V518.932H982.973V505.007V498.915V483.249V477.157V461.491V455.399V439.733V433.641V417.975V411.883V396.217V390.125V374.459V368.367V354.442H1020.64V368.367V374.459V390.125V396.217V411.883V417.975V433.641V439.733V455.399V461.491V477.157V483.249V498.915V505.007V518.932ZM1038.61 518.932H1022.38V506.748H1038.61V518.932ZM1060.05 518.932V476.286H1058.31V518.932H1053.97V363.435H1064.4V518.932H1060.05ZM1078.02 518.932H1066.14V361.694H1052.23V518.932H1040.35V505.007V498.915V483.249V477.157V461.491V455.399V439.733V433.641V417.975V411.883V396.217V390.125V374.459V368.367V354.442H1078.02V368.367V374.459V390.125V396.217V411.883V417.975V433.641V439.733V455.399V461.491V477.157V483.249V498.915V505.007V518.932ZM1095.98 518.932H1079.76V506.748H1095.98V518.932ZM1117.43 518.932V476.286H1115.69V518.932H1111.34V363.435H1121.77V518.932H1117.43ZM1153.36 506.748V518.932H1137.13V506.748H1153.36ZM1153.36 484.99V497.174H1137.13V484.99H1153.36ZM1153.36 463.232V475.416H1137.13V463.232H1153.36ZM1153.36 441.474V453.658H1137.13V441.474H1153.36ZM1153.36 419.716V431.9H1137.13V419.716H1153.36ZM1153.36 397.958V410.142H1137.13V397.958H1153.36ZM1153.36 376.2V388.384H1137.13V376.2H1153.36ZM1135.39 374.459V390.125V396.217V411.883V417.975V433.641V439.733V455.399V461.491V477.157V483.249V498.915V505.007V518.932H1123.51V361.694H1109.6V518.932H1097.72V505.007V498.915V483.249V477.157V461.491V455.399V439.733V433.641V417.975V411.883V396.217V390.125V374.459V368.367V354.442H1135.39V368.367V374.459Z" fill="#084D92" fill-opacity="0.8"/>
<path d="M1145.7 361.693H1140.09V363.434H1145.7V361.693Z" fill="#084D92" fill-opacity="0.8"/>
<path d="M1145.7 383.453H1140.09V385.194H1145.7V383.453Z" fill="#084D92" fill-opacity="0.8"/>
<path d="M1145.7 405.211H1140.09V406.952H1145.7V405.211Z" fill="#084D92" fill-opacity="0.8"/>
<path d="M1145.7 426.969H1140.09V428.709H1145.7V426.969Z" fill="#084D92" fill-opacity="0.8"/>
<path d="M1145.7 448.725H1140.09V450.465H1145.7V448.725Z" fill="#084D92" fill-opacity="0.8"/>
<path d="M1145.7 470.486H1140.09V472.227H1145.7V470.486Z" fill="#084D92" fill-opacity="0.8"/>
<path d="M1002.68 370.426H1000.94V469.324H1002.68V370.426Z" fill="#084D92" fill-opacity="0.8"/>
<path d="M1060.05 370.426H1058.31V469.324H1060.05V370.426Z" fill="#084D92" fill-opacity="0.8"/>
<path d="M1117.43 370.426H1115.69V469.324H1117.43V370.426Z" fill="#084D92" fill-opacity="0.8"/>
<path d="M1170.55 364.764H1168.81V371.891H1170.55V364.764Z" fill="#084D92" fill-opacity="0.8"/>
<path d="M1221.01 235.266V316.379H1192.92V235.266H1153.21V520.672H1191.18H1192.92H1200.33H1213.6H1221.01H1222.75H1260.72V235.266H1221.01ZM1168.81 246.848V360.691H1170.55V246.848H1175.25V255.82H1176.99V246.848H1181.69V518.931H1176.99V259.893H1175.25V518.931H1170.55V375.963H1168.81V518.931H1164.1V246.848H1168.81ZM1191.18 518.931H1183.43V246.848H1185.67V245.108H1160.18V246.848H1162.36V518.931H1154.95V237.006H1191.18V316.379L1191.18 518.931ZM1202.07 518.931V332.374H1211.86V518.931H1202.07ZM1221.01 518.931H1213.6V330.633H1200.33V518.931H1192.92V318.12H1221.01V518.931ZM1236.94 246.848V255.82H1238.68V246.848H1243.39V360.691H1245.12V246.848H1249.83V518.931H1245.12V375.963H1243.39V518.931H1238.68V259.893H1236.94V518.931H1232.24V246.848H1236.94ZM1258.98 518.931H1251.57V246.848H1253.75V245.108H1228.26V246.848H1230.51V518.931H1222.75V316.379V237.006H1258.98L1258.98 518.931Z" fill="#084D92" fill-opacity="0.8"/>
<path d="M1245.12 364.764H1243.39V371.891H1245.12V364.764Z" fill="#084D92" fill-opacity="0.8"/>
<path d="M1338.81 441.184V417.686H1279.99V441.184H1258.83V520.673H1279.99H1281.72H1337.07H1338.81H1359.96V441.184H1338.81ZM1279.99 518.933H1260.57V442.925H1279.99V518.933ZM1337.07 518.933H1281.72V441.184V419.426H1337.07V441.184V518.933ZM1358.22 518.933H1338.81V442.925H1358.22V518.933Z" fill="#084D92" fill-opacity="0.8"/>
<path d="M1299.77 425.664H1285.06V432.627H1299.77V425.664ZM1298.03 430.886H1286.8V427.405H1298.03V430.886Z" fill="#084D92" fill-opacity="0.8"/>
<path d="M1316.9 425.664H1302.19V432.627H1316.9V425.664ZM1315.16 430.886H1303.93V427.405H1315.16V430.886Z" fill="#084D92" fill-opacity="0.8"/>
<path d="M1319.32 432.627H1334.03V425.664H1319.32V432.627ZM1321.06 427.405H1332.29V430.886H1321.06V427.405Z" fill="#084D92" fill-opacity="0.8"/>
<path d="M1316.03 437.646H1285.93V439.387H1316.03V437.646Z" fill="#084D92" fill-opacity="0.8"/>
<path d="M1333.16 437.646H1320.19V439.387H1333.16V437.646Z" fill="#084D92" fill-opacity="0.8"/>
<path d="M1296.21 446.987H1332.14V450.178H1286.65V446.987H1292.45V445.246H1284.91V451.919H1333.88V445.246H1296.21V446.987Z" fill="#084D92" fill-opacity="0.8"/>
<path d="M1284.91 462.362H1333.88V455.689H1284.91V462.362ZM1286.65 457.43H1332.14V460.621H1286.65V457.43Z" fill="#084D92" fill-opacity="0.8"/>
<path d="M1313.31 466.135H1308.09V467.875H1313.31V466.135Z" fill="#084D92" fill-opacity="0.8"/>
<path d="M1317.08 467.875H1332.14V471.067H1286.65V467.875H1304.33V466.135H1284.91V472.807H1333.88V466.135H1317.08V467.875Z" fill="#084D92" fill-opacity="0.8"/>
<path d="M1284.91 483.251H1333.88V476.578H1284.91V483.251ZM1286.65 478.319H1332.14V481.51H1286.65V478.319Z" fill="#084D92" fill-opacity="0.8"/>
<path d="M45.2012 287.861H43.1729V294H45.2012V287.861Z" fill="#084D92" fill-opacity="0.8"/>
<path d="M45.2012 300.336H43.1729V306.475H45.2012V300.336Z" fill="#084D92" fill-opacity="0.8"/>
<path d="M53.4834 296.152H47.3516V298.183H53.4834V296.152Z" fill="#084D92" fill-opacity="0.8"/>
<path d="M41.0234 296.152H34.8916V298.183H41.0234V296.152Z" fill="#084D92" fill-opacity="0.8"/>
<path d="M455.81 162.248H453.781V168.387H455.81V162.248Z" fill="#084D92" fill-opacity="0.8"/>
<path d="M455.81 174.723H453.781V180.862H455.81V174.723Z" fill="#084D92" fill-opacity="0.8"/>
<path d="M464.09 170.539H457.958V172.57H464.09V170.539Z" fill="#084D92" fill-opacity="0.8"/>
<path d="M451.632 170.539H445.5V172.57H451.632V170.539Z" fill="#084D92" fill-opacity="0.8"/>
<path d="M1029.27 272.197H1027.24V278.336H1029.27V272.197Z" fill="#084D92" fill-opacity="0.8"/>
<path d="M1029.27 284.672H1027.24V290.811H1029.27V284.672Z" fill="#084D92" fill-opacity="0.8"/>
<path d="M1037.55 280.488H1031.41V282.519H1037.55V280.488Z" fill="#084D92" fill-opacity="0.8"/>
<path d="M1025.09 280.488H1018.96V282.519H1025.09V280.488Z" fill="#084D92" fill-opacity="0.8"/>
<path d="M1251.81 80.4375H1249.78V86.5767H1251.81V80.4375Z" fill="#084D92" fill-opacity="0.8"/>
<path d="M1251.81 92.9121H1249.78V99.0513H1251.81V92.9121Z" fill="#084D92" fill-opacity="0.8"/>
<path d="M1260.09 88.7285H1253.96V90.7593H1260.09V88.7285Z" fill="#084D92" fill-opacity="0.8"/>
<path d="M1247.63 88.7285H1241.5V90.7593H1247.63V88.7285Z" fill="#084D92" fill-opacity="0.8"/>
<path d="M849.896 -6.01367H847.867V0.125552H849.896V-6.01367Z" fill="#084D92" fill-opacity="0.8"/>
<path d="M176.468 52.5859H174.439V58.7252H176.468V52.5859Z" fill="#084D92" fill-opacity="0.8"/>
<path d="M176.468 65.0605H174.439V71.1998H176.468V65.0605Z" fill="#084D92" fill-opacity="0.8"/>
<path d="M184.75 60.8789H178.618V62.9096H184.75V60.8789Z" fill="#084D92" fill-opacity="0.8"/>
<path d="M172.29 60.8789H166.158V62.9096H172.29V60.8789Z" fill="#084D92" fill-opacity="0.8"/>
<path d="M940.45 199.235H912.342C908.747 199.235 905.822 196.307 905.822 192.708C905.822 189.43 908.248 186.709 911.396 186.249C911.856 183.097 914.574 180.669 917.848 180.669C917.985 180.669 918.122 180.673 918.261 180.682C919.234 176.807 922.753 173.996 926.831 173.996C931.704 173.996 935.669 177.965 935.669 182.844C935.669 182.99 935.665 183.136 935.658 183.281C937.549 183.334 939.21 184.503 939.927 186.203C940.102 186.188 940.277 186.18 940.45 186.18C944.045 186.18 946.97 189.108 946.97 192.708C946.97 196.307 944.045 199.235 940.45 199.235ZM917.848 182.699C915.371 182.699 913.356 184.716 913.356 187.196C913.356 187.757 912.902 188.211 912.342 188.211C909.865 188.211 907.851 190.228 907.851 192.708C907.851 195.187 909.865 197.205 912.342 197.205H940.45C942.927 197.205 944.941 195.187 944.941 192.708C944.941 190.228 942.927 188.211 940.45 188.211C940.124 188.211 939.786 188.251 939.445 188.329C939.177 188.389 938.896 188.34 938.666 188.19C938.436 188.04 938.276 187.804 938.224 187.534C937.972 186.246 936.837 185.31 935.524 185.31C935.275 185.31 935.021 185.347 934.769 185.418C934.429 185.516 934.061 185.428 933.801 185.185C933.541 184.944 933.426 184.584 933.498 184.236C933.592 183.78 933.64 183.312 933.64 182.844C933.64 179.085 930.585 176.027 926.831 176.027C923.421 176.027 920.519 178.576 920.08 181.957C920.044 182.241 919.889 182.495 919.655 182.659C919.42 182.823 919.127 182.879 918.849 182.816C918.509 182.739 918.172 182.699 917.848 182.699Z" fill="#084D92" fill-opacity="0.8"/>
<path d="M137.206 232.888H113.735C110.939 232.888 108.664 230.61 108.664 227.811C108.664 225.234 110.592 223.099 113.08 222.777C113.976 220.189 116.452 218.383 119.241 218.383C120.152 218.383 121.04 218.571 121.861 218.933C123.005 216.681 125.352 215.191 127.934 215.191C130.942 215.191 133.502 217.116 134.4 219.861C135.275 219.461 136.225 219.253 137.206 219.253C140.961 219.253 144.016 222.311 144.016 226.07C144.016 229.83 140.961 232.888 137.206 232.888ZM113.734 224.766C112.056 224.766 110.692 226.132 110.692 227.811C110.692 229.491 112.057 230.857 113.735 230.857H137.206C139.843 230.857 141.988 228.71 141.988 226.07C141.988 223.431 139.843 221.284 137.206 221.284C136.157 221.284 135.158 221.623 134.316 222.265C134.023 222.488 133.632 222.535 133.295 222.388C132.957 222.24 132.726 221.92 132.692 221.553C132.459 219.084 130.414 217.222 127.934 217.222C125.825 217.222 123.939 218.638 123.348 220.665C123.256 220.979 123.02 221.229 122.712 221.338C122.404 221.447 122.064 221.401 121.796 221.215C121.041 220.69 120.158 220.413 119.241 220.413C117.135 220.413 115.289 221.908 114.85 223.967C114.748 224.448 114.325 224.789 113.827 224.771C113.796 224.77 113.766 224.768 113.736 224.766C113.735 224.766 113.734 224.766 113.734 224.766Z" fill="#084D92" fill-opacity="0.8"/>
<path d="M537.25 49.1055H521.305C516.671 49.1055 512.901 45.3315 512.901 40.6924C512.901 36.0533 516.671 32.2793 521.305 32.2793C523.703 32.2793 525.99 33.3187 527.576 35.0953C528.361 34.78 529.204 34.6155 530.055 34.6155C533.042 34.6155 535.601 36.5853 536.428 39.3573C536.698 39.3109 536.973 39.2877 537.25 39.2877C539.953 39.2877 542.153 41.4899 542.153 44.1966C542.153 46.9033 539.953 49.1055 537.25 49.1055ZM521.304 34.31C517.789 34.31 514.929 37.1731 514.929 40.6924C514.929 44.2117 517.789 47.0747 521.304 47.0747H537.249C538.834 47.0747 540.124 45.7834 540.124 44.1966C540.124 42.6094 538.834 41.3184 537.249 41.3184C536.844 41.3184 536.448 41.404 536.074 41.5726C535.778 41.7057 535.436 41.6892 535.155 41.5282C534.873 41.3672 534.685 41.0811 534.65 40.7585C534.39 38.4142 532.414 36.6463 530.055 36.6463C529.261 36.6463 528.477 36.852 527.788 37.241C527.338 37.4943 526.771 37.3701 526.468 36.9523C525.271 35.2978 523.34 34.31 521.304 34.31Z" fill="#084D92" fill-opacity="0.8"/>
<path d="M327.222 74.4863H307.59V76.5171H327.222V74.4863Z" fill="#084D92" fill-opacity="0.8"/>
<path d="M317.589 80.2891H303.245V82.3198H317.589V80.2891Z" fill="#084D92" fill-opacity="0.8"/>
<path d="M336.712 74.4863H330.482V76.5171H336.712V74.4863Z" fill="#084D92" fill-opacity="0.8"/>
<path d="M1100.33 301.348H1080.7V303.378H1100.33V301.348Z" fill="#084D92" fill-opacity="0.8"/>
<path d="M1090.7 307.152H1076.35V309.183H1090.7V307.152Z" fill="#084D92" fill-opacity="0.8"/>
<path d="M1109.82 301.348H1103.59V303.378H1109.82V301.348Z" fill="#084D92" fill-opacity="0.8"/>
<path d="M1002.97 46.9297H983.336V48.9604H1002.97V46.9297Z" fill="#084D92" fill-opacity="0.8"/>
<path d="M993.334 52.7324H978.99V54.7632H993.334V52.7324Z" fill="#084D92" fill-opacity="0.8"/>
<path d="M1012.46 46.9297H1006.23V48.9604H1012.46V46.9297Z" fill="#084D92" fill-opacity="0.8"/>
</g>
<defs>
<clipPath id="clip0_39_26807">
<rect width="1439" height="519" fill="white"/>
</clipPath>
</defs>
</svg>
