<svg width="551" height="62" viewBox="0 0 551 62" fill="none" xmlns="http://www.w3.org/2000/svg">
<g clip-path="url(#clip0_191_21702)">
<mask id="mask0_191_21702" style="mask-type:luminance" maskUnits="userSpaceOnUse" x="-1" y="0" width="552" height="63">
<path d="M450.406 62.1808C450.931 62.2735 450.861 62.9996 450.328 62.9996V62.9996C450.302 62.9996 450.276 62.9974 450.251 62.9929C430.916 59.5761 408.235 59.0472 381.778 62.9948C381.756 62.998 381.735 62.9996 381.713 62.9996V62.9996C381.177 62.9996 381.121 62.2583 381.651 62.1792C408.214 58.212 430.983 58.7509 450.406 62.1808ZM472.229 62.1886C472.69 62.3363 472.58 62.9996 472.096 62.9996V62.9996C472.052 62.9996 472.008 62.9929 471.966 62.9793C443.271 53.7863 405.372 51.0926 355.964 62.9878C355.931 62.9956 355.898 62.9996 355.865 62.9996V62.9996C355.368 62.9996 355.294 62.3005 355.776 62.1844C405.356 50.2459 443.404 52.9552 472.229 62.1886ZM486.829 62.2195C487.239 62.3981 487.104 62.9996 486.657 62.9996V62.9996C486.599 62.9996 486.544 62.9881 486.491 62.9654C454.281 48.9631 408.122 42.9959 343.377 61.222L337.131 62.9841C337.094 62.9944 337.057 62.9996 337.019 62.9996V62.9996C336.539 62.9996 336.445 62.3205 336.906 62.1901C338.954 61.6114 341.035 61.0242 343.154 60.4277C408.128 42.1369 454.469 48.1422 486.829 62.2195ZM498.287 62.2352C498.663 62.4382 498.511 62.9996 498.083 62.9996V62.9996C498.014 62.9996 497.948 62.983 497.887 62.9504C465.489 45.4889 416.293 35.6662 343.795 56.0755C335.497 58.411 327.335 60.7339 319.443 62.9838C319.406 62.9943 319.368 62.9996 319.33 62.9996V62.9996C318.851 62.9996 318.756 62.3211 319.217 62.1898C326.953 59.9842 335.009 57.6912 343.572 55.281C416.334 34.7982 465.731 44.6777 498.287 62.2352ZM507.886 62.2514C508.232 62.4728 508.067 62.9996 507.656 62.9996V62.9996C507.577 62.9996 507.501 62.9776 507.434 62.935C475.415 42.4554 423.882 28.5007 344.212 50.9287C333.153 54.0418 322.453 57.1041 312.249 60.024C308.736 61.0296 305.297 62.0135 301.899 62.9838C301.862 62.9943 301.824 62.9996 301.786 62.9996V62.9996C301.307 62.9996 301.212 62.3214 301.672 62.1901C305.066 61.2211 308.514 60.2342 312.024 59.2299C322.098 56.347 332.663 53.3231 343.989 50.1348C423.953 27.6244 475.706 41.6562 507.886 62.2514ZM516.183 62.2602C516.504 62.4983 516.327 62.9996 515.927 62.9996V62.9996C515.837 62.9996 515.751 62.9718 515.68 62.9186C484.485 39.8359 431.156 21.4237 344.629 45.7814C332.343 49.2399 320.573 52.6223 309.394 55.8351C300.719 58.3279 292.402 60.7178 284.396 62.984C284.36 62.9944 284.322 62.9996 284.284 62.9996V62.9996C283.804 62.9996 283.71 62.3185 284.171 62.1879C292.178 59.922 300.489 57.535 309.169 55.0407C320.245 51.8577 331.907 48.506 344.407 44.9877C431.248 20.5417 484.824 39.0463 516.183 62.2602ZM523.518 62.2871C523.81 62.5331 523.627 62.9996 523.245 62.9996V62.9996C523.148 62.9996 523.055 62.9665 522.981 62.9039C493.002 37.6377 438.301 14.3831 345.047 40.6343C331.663 44.4021 318.81 48.1123 306.647 51.6228C292.463 55.7168 279.229 59.5348 266.734 62.9848C266.698 62.9947 266.661 62.9996 266.624 62.9996V62.9996C266.143 62.9996 266.05 62.3149 266.514 62.187C279.003 58.7394 292.236 54.9215 306.418 50.8281C318.412 47.3664 331.085 43.7087 344.825 39.8409C438.428 13.4911 493.377 36.8722 523.518 62.2871ZM530.08 62.3001C530.35 62.5563 530.159 62.9996 529.787 62.9996V62.9996C529.681 62.9996 529.581 62.9605 529.504 62.8874C501.11 35.9071 445.444 7.34304 345.465 35.4881C330.726 39.637 316.974 43.6256 304 47.3876C283.842 53.2337 265.565 58.5324 248.597 62.9862C248.563 62.9951 248.529 62.9996 248.493 62.9996V62.9996C248.012 62.9996 247.923 62.31 248.389 62.1879C265.346 57.7386 283.617 52.4412 303.771 46.5964C316.786 42.8222 330.582 38.8213 345.242 34.6938C445.592 6.44493 501.525 35.1582 530.08 62.3001ZM535.988 62.321C536.234 62.5828 536.038 62.9996 535.679 62.9996V62.9996C535.565 62.9996 535.459 62.9549 535.381 62.8718C508.954 34.7226 452.722 0.264878 345.883 30.341C330.043 34.8001 315.309 39.095 301.45 43.1349C274.608 50.9594 251.037 57.8298 229.423 62.9884C229.391 62.9958 229.36 62.9996 229.328 62.9996V62.9996C228.84 62.9996 228.757 62.2936 229.231 62.1806C250.83 57.0286 274.386 50.1658 301.22 42.3437C315.115 38.2937 329.886 33.9876 345.66 29.547C452.897 -0.641102 509.404 33.9986 535.988 62.321ZM541.344 62.3417C541.568 62.6079 541.367 62.9996 541.02 62.9996V62.9996C540.898 62.9996 540.786 62.9492 540.707 62.8561C516.669 34.2196 460.282 -6.89235 346.3 25.1943C329.444 29.9392 313.733 34.5443 298.994 38.8642C264.145 49.0781 234.719 57.6992 207.837 62.992C207.812 62.9971 207.786 62.9996 207.76 62.9996V62.9996C207.268 62.9996 207.197 62.2691 207.679 62.1744C234.535 56.8963 263.935 48.2801 298.761 38.0726C313.479 33.7594 329.166 29.1614 346.077 24.4009C460.491 -7.80787 517.158 33.5233 541.344 62.3417ZM546.201 62.3625C546.404 62.6323 546.198 62.9996 545.861 62.9996V62.9996C545.732 62.9996 545.613 62.9434 545.536 62.8397C524.398 34.6325 468.35 -14.1929 346.718 20.0478C328.811 25.0889 312.186 29.9895 296.624 34.5768C249.995 48.3224 212.901 59.2526 178.459 62.9996L168.995 62.9996C206.07 60.4048 245.552 48.7721 296.392 33.7853C311.934 29.2041 328.539 24.3086 346.495 19.2539C468.59 -15.1169 524.926 33.9697 546.201 62.3625ZM-0.77267 3.52015C-0.880575 3.44278 -0.946269 3.3169 -0.946269 3.18413V3.18413C-0.946269 2.84842 -0.559908 2.65811 -0.287064 2.85371C55.2844 42.6917 97.2183 59.8491 139.122 62.9996L130.381 62.9996C91.1821 58.225 51.1422 40.7408 -0.77267 3.52015ZM-0.773924 5.90726C-0.881284 5.82975 -0.94627 5.70436 -0.946269 5.57195V5.57195C-0.946269 5.23533 -0.559773 5.04401 -0.28684 5.24103C42.7706 36.323 77.4592 53.9952 110.164 62.1569C110.638 62.2752 110.551 62.9996 110.063 62.9996V62.9996C110.029 62.9996 109.996 62.9956 109.964 62.9875C77.1774 54.8004 42.3996 37.0763 -0.773924 5.90726ZM-0.774713 8.27428C-0.88173 8.19652 -0.94627 8.07132 -0.94627 7.93904V7.93904C-0.94627 7.60107 -0.558469 7.40893 -0.28504 7.60758C37.6774 35.188 69.0087 52.5347 98.0991 62.1808C98.5451 62.3287 98.4381 62.9996 97.9682 62.9996V62.9996C97.9242 62.9996 97.8808 62.9927 97.8391 62.9788C68.682 53.3033 37.2816 35.9256 -0.774713 8.27428ZM-0.776033 10.6355C-0.882348 10.5578 -0.94627 10.4332 -0.94627 10.3015V10.3015C-0.94627 9.96351 -0.558503 9.77143 -0.285609 9.97087C33.8507 34.9194 62.5173 51.7254 88.9274 62.1708C89.3642 62.3436 89.2393 62.9996 88.7696 62.9996V62.9996C88.7163 62.9996 88.6638 62.9896 88.6142 62.97C62.153 52.4941 33.426 35.6338 -0.776033 10.6355ZM-0.777241 12.9941C-0.882903 12.9165 -0.94627 12.7924 -0.94627 12.6613V12.6613C-0.94627 12.3233 -0.558493 12.1313 -0.286107 12.3314C30.7358 35.1284 57.1529 51.3163 81.3911 62.1817C81.8097 62.3693 81.6743 62.9996 81.2156 62.9996V62.9996C81.1558 62.9996 81.0971 62.9872 81.0426 62.9627C56.7629 52.0674 30.2945 35.8293 -0.777241 12.9941ZM-0.778558 15.3494C-0.883485 15.2718 -0.94627 15.1485 -0.94627 15.018V15.018C-0.94627 14.6804 -0.558954 14.4888 -0.287391 14.6894C28.085 35.6444 52.5263 51.1601 74.9169 62.201C75.3151 62.3974 75.1738 62.9996 74.7298 62.9996V62.9996C74.6656 62.9996 74.6027 62.9851 74.5451 62.9567C52.119 51.8876 27.6351 36.3364 -0.778558 15.3494ZM-0.778369 17.6955C-0.883496 17.6175 -0.94627 17.4937 -0.94627 17.3628V17.3628C-0.94627 17.0228 -0.556208 16.8299 -0.283161 17.0325C25.7388 36.3389 48.4086 51.1755 69.1596 62.2173C69.5408 62.4201 69.3952 62.9996 68.9633 62.9996V62.9996C68.8956 62.9996 68.8293 62.9832 68.7695 62.9514C47.9834 51.8847 25.2844 37.033 -0.778369 17.6955ZM-0.779425 20.0323C-0.883958 19.9544 -0.94627 19.8312 -0.94627 19.7008V19.7008C-0.94627 19.3612 -0.556579 19.1686 -0.284205 19.3715C23.6402 37.194 44.6822 51.3057 63.9613 62.2177C64.3346 62.429 64.1833 62.9996 63.7544 62.9996V62.9996C63.6825 62.9996 63.6122 62.9812 63.5496 62.9458C44.2446 52.0115 23.1739 37.8768 -0.779425 20.0323ZM-0.780134 22.369C-0.884293 22.2911 -0.94627 22.1681 -0.94627 22.0381V22.0381C-0.94627 21.6983 -0.556345 21.5056 -0.284175 21.7091C21.7218 38.1626 41.2511 51.5402 59.1743 62.2188C59.5404 62.4369 59.3847 62.9996 58.9584 62.9996V62.9996C58.883 62.9996 58.8093 62.9795 58.7445 62.9408C40.8025 52.2444 21.2446 38.8361 -0.780134 22.369ZM-0.780877 24.7037C-0.884624 24.6259 -0.94627 24.5033 -0.94627 24.3736V24.3736C-0.94627 24.0339 -0.556448 23.8414 -0.284666 24.0452C19.9603 39.2309 38.0757 51.868 54.742 62.2326C55.096 62.4528 54.9391 62.9996 54.5222 62.9996V62.9996C54.445 62.9996 54.3696 62.9782 54.3041 62.9374C37.6189 52.5561 19.4824 39.9027 -0.780877 24.7037ZM-0.92547 26.9294C-0.938568 26.9195 -0.94627 26.9041 -0.94627 26.8877L-0.94627 26.5266C-0.94627 26.2607 -0.64244 26.1091 -0.429936 26.269V26.269C18.234 40.3111 35.0575 52.2307 50.5815 62.241C50.9268 62.4636 50.7684 62.9997 50.3575 62.9997V62.9997C50.2784 62.9997 50.2014 62.9771 50.1349 62.9342C34.5923 52.9086 17.7569 40.9856 -0.92547 26.9294V26.9294ZM-0.781729 29.3652C-0.885335 29.2872 -0.946271 29.1651 -0.946271 29.0354V29.0354C-0.946271 28.6949 -0.557203 28.5008 -0.28513 28.7056L0.912495 29.6071C17.5069 42.0922 32.6199 52.921 46.6423 62.244C46.982 62.4699 46.8217 62.9996 46.4138 62.9996V62.9996C46.3327 62.9996 46.2538 62.9759 46.1863 62.931C32.1482 53.595 17.0266 42.7641 0.416774 30.2675L-0.781729 29.3652ZM-0.781747 31.6921C-0.885342 31.6141 -0.946271 31.492 -0.946271 31.3623V31.3623C-0.946271 31.0217 -0.557128 30.8276 -0.285063 31.0325L2.25536 32.9456C16.877 43.9465 30.3287 53.6799 42.8849 62.2472C43.2196 62.4755 43.0579 62.9996 42.6527 62.9996V62.9996C42.57 62.9996 42.4895 62.9749 42.4211 62.9282C29.8519 54.35 16.3942 44.6164 1.76014 33.606L-0.781747 31.6921ZM-0.781822 34.0192C-0.88537 33.9412 -0.946271 33.8191 -0.946271 33.6895V33.6895C-0.946271 33.3491 -0.557344 33.1551 -0.285392 33.3598L3.59835 36.2838C16.33 45.8631 28.1635 54.4989 39.2772 62.2503C39.6074 62.4806 39.4446 62.9997 39.042 62.9997V62.9997C38.9579 62.9997 38.8761 62.9741 38.8071 62.926C27.6818 55.1652 15.8458 46.5314 3.1027 36.944L-0.781822 34.0192ZM-0.781515 36.3471C-0.885256 36.269 -0.946271 36.1467 -0.946271 36.0168V36.0168C-0.946271 35.6758 -0.556607 35.4814 -0.284192 35.6866L4.94166 39.6223C15.8615 47.8381 26.104 55.3633 35.7951 62.248C36.1238 62.4815 35.9584 62.9997 35.5552 62.9997V62.9997C35.4694 62.9997 35.3858 62.9731 35.3159 62.9234C25.6192 56.0338 15.3694 48.501 4.44606 40.2826L-0.781515 36.3471ZM-0.781767 38.6743C-0.88535 38.5963 -0.946271 38.4742 -0.946271 38.3446V38.3446C-0.946271 38.0041 -0.557273 37.81 -0.285258 38.0148L6.28409 42.9602C15.4543 49.8597 24.1399 56.2813 32.4167 62.2522C32.7415 62.4865 32.5755 62.9997 32.1751 62.9997V62.9997C32.0885 62.9997 32.0042 62.9725 31.934 62.9219C23.6518 56.9471 14.9619 50.5224 5.78843 43.6207L-0.781767 38.6743ZM-0.781696 41.0023C-0.885322 40.9243 -0.946271 40.8022 -0.946271 40.6725V40.6725C-0.946271 40.3319 -0.557213 40.1378 -0.285135 40.3426L7.62733 46.2983C15.1046 51.9238 22.256 57.2385 29.1218 62.254C29.444 62.4894 29.2773 62.9996 28.8783 62.9996V62.9996C28.7909 62.9996 28.7059 62.9719 28.6353 62.9204C21.7654 57.902 14.612 52.587 7.13173 46.9586L-0.781696 41.0023ZM-0.781663 43.3323C-0.885308 43.2543 -0.946271 43.1322 -0.946271 43.0024V43.0024C-0.946271 42.662 -0.557296 42.4679 -0.285234 42.6726L3.50189 45.5224L8.96988 49.6369C14.8071 54.0287 20.4394 58.2304 25.8929 62.2545C26.2134 62.491 26.0461 62.9996 25.6478 62.9996V62.9996C25.5596 62.9996 25.4738 62.9714 25.4029 62.9191C19.9469 58.893 14.3129 54.6898 8.47429 50.2971L3.00629 46.1826L-0.781663 43.3323ZM-0.781607 45.6634C-0.885284 45.5855 -0.946271 45.4633 -0.946271 45.3336V45.3336C-0.946271 44.9932 -0.55744 44.7991 -0.285399 45.0037L9.56058 52.4089L10.3132 52.9753C14.5534 56.1657 18.684 59.2571 22.7156 62.2557C23.0344 62.4929 22.8667 62.9996 22.4693 62.9996V62.9996C22.3806 62.9996 22.2944 62.971 22.2232 62.9181C18.1895 59.9185 14.0586 56.8266 9.81765 53.6356L9.06517 53.0692L-0.781607 45.6634ZM-0.781388 47.9968C-0.885237 47.9188 -0.946271 47.7966 -0.946271 47.6667V47.6667C-0.946271 47.3264 -0.557792 47.1322 -0.28568 47.3365C3.59517 50.2505 7.5723 53.2418 11.6556 56.3139C14.3406 58.3338 16.9783 60.3129 19.5766 62.2565C19.8944 62.4942 19.7263 62.9997 19.3294 62.9997V62.9997C19.2403 62.9997 19.1537 62.9709 19.0823 62.9175C16.4821 60.9724 13.8457 58.9947 11.16 56.9742C7.07594 53.9012 3.09994 50.9112 -0.781388 47.9968ZM-0.78116 50.3321C-0.885152 50.2541 -0.946271 50.1318 -0.946271 50.0018V50.0018C-0.946271 49.6617 -0.55809 49.4674 -0.285933 49.6714C4.02019 52.8999 8.44347 56.2247 12.9989 59.6519L16.4647 62.2561C16.782 62.4945 16.6134 62.9996 16.2165 62.9996V62.9996C16.127 62.9996 16.0398 62.9705 15.9683 62.9167L12.5034 60.3123C7.94824 56.8853 3.52439 53.5602 -0.78116 50.3321ZM-0.780865 52.6709C-0.885036 52.593 -0.946272 52.4705 -0.946272 52.3404V52.3404C-0.946272 52.0004 -0.558374 51.806 -0.286129 52.0098C4.4424 55.5487 9.31304 59.2069 14.3418 62.9906V62.9906C14.3457 62.9935 14.3436 62.9996 14.3388 62.9996L13.118 62.9996C13.0287 62.9996 12.9417 62.9705 12.8703 62.9168C8.18796 59.3945 3.63986 55.9798 -0.780865 52.6709ZM-0.78052 55.0125C-0.884874 54.9345 -0.946272 54.812 -0.946272 54.6817V54.6817C-0.946272 54.3419 -0.558751 54.1476 -0.286504 54.3509C3.15303 56.9201 6.67085 59.5563 10.2665 62.2567C10.5836 62.4949 10.4153 62.9996 10.0187 62.9996V62.9996C9.92927 62.9996 9.84222 62.9705 9.77072 62.9169C6.17614 60.2176 2.65734 57.5802 -0.78052 55.0125ZM-0.780219 57.3571C-0.884722 57.2792 -0.946272 57.1566 -0.946272 57.0263V57.0263C-0.946272 56.6868 -0.559386 56.4926 -0.287239 56.6954C2.15506 58.5155 4.63604 60.3697 7.15571 62.2566C7.47331 62.4944 7.30512 62.9996 6.90834 62.9996V62.9996C6.81912 62.9996 6.73227 62.9707 6.66086 62.9172C4.14062 61.0298 1.66279 59.1778 -0.780219 57.3571ZM-0.779704 59.7052C-0.884504 59.6273 -0.946272 59.5044 -0.946272 59.3738V59.3738C-0.946272 59.0343 -0.55952 58.8399 -0.287123 59.0424C1.13753 60.1017 2.5759 61.1731 4.02703 62.2558C4.3455 62.4935 4.17743 62.9996 3.78009 62.9996V62.9996C3.69109 62.9996 3.60446 62.9709 3.53312 62.9176C2.08335 61.8361 0.643857 60.7636 -0.779704 59.7052ZM-0.779432 62.0582C-0.884385 61.9803 -0.946272 61.8574 -0.946272 61.7267V61.7267C-0.946272 61.3877 -0.560081 61.1934 -0.287811 61.3954L0.87211 62.256C1.19129 62.4928 1.0238 62.9996 0.626366 62.9996V62.9996C0.537896 62.9996 0.45177 62.9712 0.380706 62.9185L-0.779432 62.0582ZM550.237 62.9996C550.098 62.9996 549.974 62.9377 549.897 62.8224C532.362 36.4209 477.31 -21.7444 347.135 14.901C328.208 20.2289 310.697 25.4223 294.339 30.2733C172.914 66.2838 114.918 83.4604 -0.768934 1.13105C-0.877735 1.05362 -0.946269 0.925508 -0.946269 0.791968V0.791968C-0.946269 0.456253 -0.552624 0.270954 -0.279087 0.465587C115.083 82.5504 172.955 65.4111 294.106 29.4817C310.448 24.6358 327.941 19.4473 346.913 14.1067C477.578 -22.6763 532.933 35.7982 550.594 62.3842C550.776 62.6574 550.565 62.9996 550.237 62.9996V62.9996Z" fill="white"/>
</mask>
<g mask="url(#mask0_191_21702)">
<path d="M551 63.476L551 -2.96485C551 -14.0105 542.046 -22.9648 531 -22.9648L19.0537 -22.9649C8.00806 -22.9649 -0.946289 -14.0106 -0.94629 -2.96488L-0.946293 63.476C-0.946293 74.5217 8.00805 83.476 19.0538 83.476L531 83.476C542.046 83.476 551 74.5217 551 63.476Z" fill="url(#paint0_linear_191_21702)" fill-opacity="0.4"/>
</g>
</g>
<defs>
<linearGradient id="paint0_linear_191_21702" x1="555.412" y1="62.3178" x2="-0.799258" y2="-1.28528" gradientUnits="userSpaceOnUse">
<stop stop-color="#1FA2FF"/>
<stop offset="0.5" stop-color="#12D8FA"/>
<stop offset="1" stop-color="#A6FFCB"/>
</linearGradient>
<clipPath id="clip0_191_21702">
<path d="M551 62H20C10.5719 62 5.85786 62 2.92893 59.0711C0 56.1421 0 51.4281 0 42V0H551V62Z" fill="white"/>
</clipPath>
</defs>
</svg>
